<svg width="493" height="367" viewBox="0 0 493 367" fill="none" xmlns="http://www.w3.org/2000/svg">
<path d="M32.0266 249.252H450.528V244.934H32.0266V249.252Z" fill="#E7E8E5"/>
<path d="M42.4733 241.872H58.168L50.3206 231.445L42.4733 241.872Z" fill="#E7E8E5"/>
<path d="M73.8621 231.445H58.168L66.0148 241.872L73.8621 231.445Z" fill="#D4D6D3"/>
<path d="M73.8621 241.872H89.5568L81.7095 231.445L73.8621 241.872Z" fill="#E7E8E5"/>
<path d="M105.251 231.445H89.5568L97.4036 241.872L105.251 231.445Z" fill="#D4D6D3"/>
<path d="M105.251 241.872H120.946L113.098 231.445L105.251 241.872Z" fill="#E7E8E5"/>
<path d="M136.639 231.445H120.946L128.793 241.872L136.639 231.445Z" fill="#D4D6D3"/>
<path d="M136.639 241.872H152.334L144.487 231.445L136.639 241.872Z" fill="#E7E8E5"/>
<path d="M168.028 231.445H152.334L160.182 241.872L168.028 231.445Z" fill="#D4D6D3"/>
<path d="M168.028 241.872H183.723L175.876 231.445L168.028 241.872Z" fill="#E7E8E5"/>
<path d="M199.417 231.445H183.723L191.571 241.872L199.417 231.445Z" fill="#D4D6D3"/>
<path d="M199.417 241.872H215.112L207.265 231.445L199.417 241.872Z" fill="#E7E8E5"/>
<path d="M230.806 231.445H215.112L222.959 241.872L230.806 231.445Z" fill="#D4D6D3"/>
<path d="M230.806 241.872H246.501L238.654 231.445L230.806 241.872Z" fill="#E7E8E5"/>
<path d="M262.195 231.445H246.501L254.347 241.872L262.195 231.445Z" fill="#D4D6D3"/>
<path d="M262.195 241.872H277.89L270.042 231.445L262.195 241.872Z" fill="#E7E8E5"/>
<path d="M293.584 231.445H277.89L285.736 241.872L293.584 231.445Z" fill="#D4D6D3"/>
<path d="M293.584 241.872H309.279L301.431 231.445L293.584 241.872Z" fill="#E7E8E5"/>
<path d="M324.973 231.445H309.279L317.125 241.872L324.973 231.445Z" fill="#D4D6D3"/>
<path d="M324.973 241.872H340.667L332.82 231.445L324.973 241.872Z" fill="#E7E8E5"/>
<path d="M356.362 231.445H340.667L348.514 241.872L356.362 231.445Z" fill="#D4D6D3"/>
<path d="M356.362 241.872H372.055L364.209 231.445L356.362 241.872Z" fill="#E7E8E5"/>
<path d="M387.75 231.445H372.055L379.903 241.872L387.75 231.445Z" fill="#D4D6D3"/>
<path d="M387.75 241.872H403.444L395.598 231.445L387.75 241.872Z" fill="#E7E8E5"/>
<path d="M419.139 231.445H403.444L411.292 241.872L419.139 231.445Z" fill="#D4D6D3"/>
<path d="M419.139 241.872H434.833L426.987 231.445L419.139 241.872Z" fill="#E7E8E5"/>
<path d="M450.528 231.445H434.833L442.681 241.872L450.528 231.445Z" fill="#D4D6D3"/>
<path d="M450.528 264.64H434.833L442.681 254.213L450.528 264.64Z" fill="#D4D6D3"/>
<path d="M419.139 254.213H434.833L426.987 264.64L419.139 254.213Z" fill="#E7E8E5"/>
<path d="M419.139 264.64H403.444L411.292 254.213L419.139 264.64Z" fill="#D4D6D3"/>
<path d="M387.75 254.213H403.444L395.598 264.64L387.75 254.213Z" fill="#E7E8E5"/>
<path d="M387.75 264.64H372.055L379.903 254.213L387.75 264.64Z" fill="#D4D6D3"/>
<path d="M356.362 254.213H372.055L364.209 264.64L356.362 254.213Z" fill="#E7E8E5"/>
<path d="M356.362 264.64H340.667L348.514 254.213L356.362 264.64Z" fill="#D4D6D3"/>
<path d="M324.973 254.213H340.667L332.82 264.64L324.973 254.213Z" fill="#E7E8E5"/>
<path d="M324.973 264.64H309.279L317.125 254.213L324.973 264.64Z" fill="#D4D6D3"/>
<path d="M293.584 254.213H309.279L301.431 264.64L293.584 254.213Z" fill="#E7E8E5"/>
<path d="M293.584 264.64H277.89L285.736 254.213L293.584 264.64Z" fill="#D4D6D3"/>
<path d="M262.195 254.213H277.89L270.042 264.64L262.195 254.213Z" fill="#E7E8E5"/>
<path d="M262.195 264.64H246.501L254.347 254.213L262.195 264.64Z" fill="#D4D6D3"/>
<path d="M230.806 254.213H246.501L238.654 264.64L230.806 254.213Z" fill="#E7E8E5"/>
<path d="M230.806 264.64H215.112L222.959 254.213L230.806 264.64Z" fill="#D4D6D3"/>
<path d="M199.417 254.213H215.112L207.265 264.64L199.417 254.213Z" fill="#E7E8E5"/>
<path d="M199.417 264.64H183.723L191.571 254.213L199.417 264.64Z" fill="#D4D6D3"/>
<path d="M168.028 254.213H183.723L175.876 264.64L168.028 254.213Z" fill="#E7E8E5"/>
<path d="M168.028 264.64H152.334L160.182 254.213L168.028 264.64Z" fill="#D4D6D3"/>
<path d="M136.639 254.213H152.334L144.487 264.64L136.639 254.213Z" fill="#E7E8E5"/>
<path d="M136.639 264.64H120.946L128.793 254.213L136.639 264.64Z" fill="#D4D6D3"/>
<path d="M105.251 254.213H120.946L113.098 264.64L105.251 254.213Z" fill="#E7E8E5"/>
<path d="M105.251 264.64H89.5568L97.4036 254.213L105.251 264.64Z" fill="#D4D6D3"/>
<path d="M73.8621 254.213H89.5568L81.7095 264.64L73.8621 254.213Z" fill="#E7E8E5"/>
<path d="M73.8621 264.64H58.168L66.0148 254.213L73.8621 264.64Z" fill="#D4D6D3"/>
<path d="M42.4733 254.213H58.168L50.3206 264.64L42.4733 254.213Z" fill="#E7E8E5"/>
<path d="M283.418 210.354H316.089V0.861002H283.418V210.354ZM317.122 211.214H282.385V0.00171874H317.122V211.214Z" fill="#E7E8E5"/>
<path d="M103.947 210.354H136.619V0.861002H103.947V210.354ZM137.651 211.214H102.915V0.00171874H137.651V211.214Z" fill="#E7E8E5"/>
<path d="M434.32 360.87C432.881 359.284 377.799 328.221 374.874 328.149C374.534 328.128 366.387 337.551 366.387 337.551L344.871 334.373L347.417 366.187H394.17C394.17 366.187 426.013 366.258 427.242 366.184C430.442 365.98 435.77 362.443 434.32 360.87Z" fill="#E7E8E5"/>
<path d="M417.669 366.217C413.601 366.217 408.849 366.212 404.688 366.206C405.658 366.201 406.32 366.195 406.573 366.187H423.613C423.613 366.187 424.85 366.19 426.846 366.193C425.642 366.211 422.053 366.217 417.669 366.217Z" fill="#CCCDCB"/>
<path d="M292.45 310.505L307.892 366.88C307.892 366.88 279.063 366.217 246.476 366.217C209.825 366.217 217.597 336.911 241.406 326.597C261.262 317.995 288.598 310.798 292.45 310.505Z" fill="#999B9B"/>
<path d="M350.465 363.388C340.299 367.106 323.482 366.807 320.951 366.876C318.419 367.097 299.647 367.296 288.929 364.879C275.449 361.839 267.141 352.506 270.124 335.512C272.671 321 284.296 307.06 284.296 307.06L353.732 303.967C353.732 303.967 364.015 324.32 366.645 338.819C368.254 347.651 368.955 356.643 350.465 363.388Z" fill="#999B9B"/>
<path d="M279.063 314.681C278.169 315.93 276.51 316.643 275.398 317.733C272.436 320.296 270.837 323.732 269.567 327.08C269.315 327.769 269.1 328.467 268.816 329.16C269.145 324.813 270.817 320.229 274.842 317.251C276.105 316.214 277.844 315.713 279.063 314.681Z" fill="#999B9B"/>
<path d="M413.729 360.87C412.29 359.284 357.208 328.221 354.283 328.149C353.942 328.128 345.796 337.551 345.796 337.551L324.28 334.373L326.825 366.187H373.579C373.579 366.187 405.421 366.258 406.651 366.184C409.851 365.98 415.179 362.443 413.729 360.87Z" fill="#E7E8E5"/>
<path d="M324.28 334.373C311.859 332.039 299.1 331.226 286.471 329.999C276.997 328.962 267.446 330.139 257.961 330.614L248.432 331.237C259.493 330.01 270.611 328.72 281.797 328.786C289.761 329.333 297.647 330.217 305.555 331.154C311.844 331.989 318.193 332.755 324.28 334.373Z" fill="#999B9B"/>
<path d="M324.524 241.112C328.952 241.186 332.933 235.292 333.063 230.56C333.072 230.212 331.819 227.188 330.377 223.43C329.511 221.147 328.614 218.588 327.996 216.203L310.964 223.057C310.964 223.057 314.024 227.739 315.069 231.901C315.152 232.25 315.194 232.58 315.199 232.901L315.215 233.068C315.331 234.993 320.245 241.039 324.524 241.112Z" fill="#E7E8E5"/>
<path d="M327.312 193.682C331.405 199.512 332.789 215.852 328.57 220.959C322.452 228.361 309.861 231.436 301.652 224.827C293.694 218.422 292.263 197.741 297.216 192.88C304.512 185.72 321.265 185.069 327.312 193.682Z" fill="#E7E8E5"/>
<path d="M316.181 218.453C312.739 217.355 311.89 207.392 311.89 207.392C311.89 207.392 300.502 207.832 300.788 200.001C300.788 200.001 292.059 201.153 290.448 196.975C289.39 194.232 292.002 191.154 297.262 189.099C304.433 186.299 316.239 183.918 324.373 190.729C324.373 190.729 328.479 191.065 331.136 196.032C332.607 198.783 334.534 209.45 331.397 213.395C330.402 214.648 329.739 219.496 328.533 220.289C324.433 222.987 319.062 219.373 316.181 218.453Z" fill="#BEBFBD"/>
<path d="M299.624 197.509C299.663 197.431 299.816 197.461 299.8 197.548C298.838 202.751 303.034 207.346 309.66 206.789C309.883 206.77 309.928 207.037 309.71 207.074C303.186 208.175 296.875 202.901 299.624 197.509Z" fill="#BEBFBD"/>
<path d="M303.872 212.133C303.872 212.133 306.9 205.591 310.355 206.355C313.809 207.12 312.69 215.929 309.447 217.77C306.206 219.611 304.1 217.148 304.1 217.148L303.872 212.133Z" fill="#E7E8E5"/>
<path d="M309.958 208.875L310.001 208.949C307.748 210.309 307.005 212.512 306.677 214.705C307.193 213.78 308.081 213.15 309.541 213.631L309.506 213.756C308.426 213.785 307.731 214.084 307.241 214.911C306.894 215.495 306.741 216.177 306.556 216.808C306.494 217.018 306.06 217.002 306.082 216.77L306.088 216.717C305.235 214.074 306.611 209.847 309.958 208.875Z" fill="#999B9B"/>
<path d="M358.815 305.919L365.066 327.249C365.066 327.249 342.136 329.271 327.947 329.155C310.504 329.011 248.984 323.282 248.984 323.282C267.062 314.325 277.327 312.016 277.327 312.016C277.327 312.016 296.144 248.611 316.191 231.042C325.407 222.964 336.556 226.675 340.966 233.832C354.912 256.461 358.815 305.919 358.815 305.919Z" fill="#BEBFBD"/>
<path d="M322.737 243.677C323.904 263.04 320.954 294.765 316.069 300.368C311.743 305.328 284.668 314.287 274.39 316.373C269.643 317.336 256.107 294.594 260.847 292.763C266.786 290.469 293.666 280.671 294.54 279.506C295.499 278.226 301.016 256.023 308.38 241.914C315.057 229.125 322.296 236.354 322.737 243.677Z" fill="#E7E8E5"/>
<path d="M270.954 290.352C270.954 290.352 258.189 291.187 251.646 293.353C242.884 296.253 236.755 301.758 234.353 304.194C229.342 309.279 221.448 324.458 226.304 327.112C230.702 329.515 237.828 313.661 237.828 313.661C237.828 313.661 227.357 328.827 233.29 330.911C239.224 332.995 246.238 314.199 246.238 314.199C246.238 314.199 235.898 329.983 242.426 331.326C247.358 332.341 254.865 315.615 254.865 315.615C254.865 315.615 246.09 329.233 251.109 330.459C256.654 331.813 264.748 316.735 264.748 316.735C278.135 318.064 285.183 313.9 289.782 310.613C290.896 309.817 270.954 290.352 270.954 290.352Z" fill="#E7E8E5"/>
<path d="M241.046 308.222C239.739 309.966 238.402 311.725 237.284 313.56C236.168 315.396 235.127 317.265 234.221 319.178C231.998 323.872 231.488 327.1 231.545 326.903C232.908 322.255 236.783 315.634 237.901 313.798C239.015 311.966 240.019 310.088 241.132 308.254L241.046 308.222Z" fill="#999B9B"/>
<path d="M249.085 311.457C247.531 313.744 245.888 315.968 244.454 318.314C243.029 320.648 241.921 322.967 240.692 325.376C240.598 325.562 240.749 325.543 240.853 325.359C242.197 322.993 243.658 320.891 245.035 318.537C246.407 316.192 247.679 313.784 249.153 311.483L249.085 311.457Z" fill="#999B9B"/>
<path d="M256.583 313.201C253.993 316.596 252.159 320.385 250.468 324.137C250.383 324.324 250.575 324.282 250.674 324.095C252.625 320.428 254.124 317.539 256.726 313.276L256.583 313.201Z" fill="#999B9B"/>
<path d="M275.323 319.228L264.707 287.919L290.106 279.308C294.984 268.287 304.749 246.255 309.499 239.057C315.071 230.612 322.482 233.28 323.5 243.058C325.831 265.423 322.396 296.212 318.637 300.871C312.877 308.01 275.323 319.228 275.323 319.228Z" fill="#BEBFBD"/>
<path d="M281.976 313.97C281.76 311.862 279.141 303.415 278.46 301.316C277.794 299.261 274.706 290.883 273.998 288.729C273.959 288.612 273.746 288.625 273.783 288.744C274.44 290.886 280.774 312.048 281.842 313.995L281.976 313.97Z" fill="#999B9B"/>
<path d="M323.99 253.913C324.237 261.265 324.222 268.628 323.848 275.982C323.384 283.339 322.964 290.757 320.588 297.907C319.555 301.728 315.574 304.118 311.789 306.03C300.352 311.677 287.835 315.603 275.341 319.271L275.284 319.287L275.27 319.24L274.235 316.019L275.375 319.215L275.305 319.185C283.566 316.578 291.761 313.813 299.741 310.674C303.725 309.101 307.677 307.455 311.411 305.523C315.081 303.635 318.837 301.403 319.858 297.718C322.264 290.685 322.668 283.238 323.27 275.958C323.745 268.619 323.973 261.264 323.99 253.913Z" fill="#999B9B"/>
<path d="M324.031 259.554C324.118 258.329 324.454 257.086 324.715 255.882C324.794 257.13 324.465 258.366 324.031 259.554Z" fill="#999B9B"/>
<path d="M0 365.346C157.924 364.819 335.078 364.816 493.001 365.345C335.078 365.875 157.923 365.872 0 365.346Z" fill="#17282F"/>
<path d="M433.894 90.6304L433.874 90.6562V90.6304H433.894Z" fill="#FABB1E"/>
<path d="M157.605 64.6972C160.073 50.8627 170.318 44.9595 182.173 38.1196C192.19 32.3452 203.364 25.9005 210.015 13.6128C216.665 25.9005 227.849 32.3452 237.856 38.1196C249.712 44.9595 259.956 50.8627 262.424 64.6886C264.923 78.6692 257.56 87.1417 257.478 87.2276L254.452 90.6304H254.4V206.488H165.629V90.6562L165.609 90.6304L162.531 87.219C162.459 87.1417 155.116 78.6691 157.605 64.6972ZM158.4 89.7969L158.411 89.7883L160.466 91.5154V210.784H259.564V91.5154L261.619 89.7969C262.001 89.3758 270.355 79.8807 267.526 64.0613C264.737 48.388 252.562 41.3763 240.789 34.5879C229.574 28.1175 217.967 21.4237 212.483 6.92759L210.015 0.431394L207.557 6.92759C202.063 21.4237 190.455 28.1175 179.24 34.5879C167.468 41.3763 155.302 48.388 152.504 64.0613C149.674 79.9065 158.039 89.4016 158.4 89.7969Z" fill="#FABB1E"/>
<path d="M259.564 210.784H185.83V206.488H254.4V168.284C254.401 168.284 254.401 168.284 254.401 168.284V159.846C254.4 159.846 254.4 159.846 254.4 159.846V90.6304H254.452L257.478 87.2276C257.549 87.1537 262.947 80.9428 262.942 70.3968C262.941 68.6147 262.786 66.7088 262.424 64.6886C259.956 50.8627 249.712 44.9595 237.856 38.1196C227.849 32.3452 216.665 25.9005 210.015 13.6128C203.364 25.9005 192.19 32.3452 182.173 38.1196C170.318 44.9595 160.073 50.8627 157.605 64.6972C157.246 66.7165 157.091 68.6207 157.091 70.402C157.089 74.6305 157.954 78.1613 158.995 80.8784C157.325 81.192 155.607 81.5134 153.91 81.8296C152.8 78.8255 151.922 75.0258 151.92 70.5257C151.92 68.509 152.095 66.3513 152.504 64.0613C155.302 48.388 167.468 41.3763 179.24 34.5879C190.455 28.1175 202.063 21.4237 207.557 6.92759L210.015 0.431394L212.483 6.92759C217.967 21.4237 229.574 28.1175 240.789 34.5879C252.562 41.3763 264.737 48.388 267.526 64.0613C267.935 66.347 268.11 68.5021 268.109 70.5163C268.107 82.4362 261.946 89.4368 261.619 89.7969L259.564 91.5154V210.784ZM165.629 136.111H160.466V110.628C162.21 110.476 163.943 110.316 165.629 110.155V136.111Z" fill="#B58418"/>
<path d="M162.531 87.219L165.609 90.6303L165.629 90.6561V206.488H245.147V90.6303H245.199L248.225 87.2276C248.307 87.1417 255.67 78.6691 253.171 64.6886C250.703 50.8627 242.008 44.9594 230.152 38.1195C220.146 32.3452 216.665 25.9005 210.015 13.6128C203.364 25.9005 192.19 32.3452 182.173 38.1195C170.318 44.9594 160.073 50.8627 157.605 64.6972C155.116 78.6691 162.459 87.1417 162.531 87.219Z" fill="white"/>
<path d="M254.401 159.846V168.284C223.616 168.43 189.413 168.602 165.63 168.731V161.135C168.336 159.45 170.856 157.577 173.685 156.03C176.753 154.355 180.057 152.963 183.475 151.863C197.778 147.274 214.487 147.807 228.202 153.564C231.816 155.094 234.955 157.156 238.405 158.883C242.721 161.04 247.131 161.453 251.985 160.421C252.8 160.25 253.606 160.052 254.401 159.846Z" fill="#E7E8E5"/>
<path d="M262.425 64.6972C262.89 67.3094 263.014 69.7326 262.9 71.9409C238.436 71.8206 217.771 71.7175 214.921 71.7175C214.446 71.7175 214.394 70.5231 214.663 70.2396C215.778 69.0881 217.358 69.0452 219.021 69.217C220.085 69.3287 221.148 69.5693 222.222 69.5951C224.153 69.6381 225.837 69.0022 227.489 68.2374C232.322 66.0205 236.525 62.1623 242.05 61.4319C247.554 60.7015 253.513 61.2687 258.501 58.8455C259.131 58.5361 259.74 58.201 260.329 57.8487C261.258 59.9024 261.971 62.1623 262.425 64.6972Z" fill="#E7E8E5"/>
<path d="M231.413 112.473C227.985 112.559 193.255 112.413 165.63 112.284V101.328C167.623 99.9708 169.451 98.4241 171.816 97.539C174.687 96.4563 177.878 96.6625 180.739 97.6421C184.167 98.8107 186.646 100.864 189.166 103.03C192.222 105.668 196.384 106.948 200.66 105.599C202.384 105.058 203.954 104.198 205.761 103.838C207.424 103.511 209.179 103.563 210.811 103.966C212.659 104.43 214.157 105.324 215.448 106.484C216.945 107.833 218.267 109.01 220.425 109.612C224.102 110.643 228.098 110.351 231.63 111.803C232.033 111.966 231.816 112.465 231.413 112.473Z" fill="#E7E8E5"/>
<path d="M210.015 13.6128C216.665 25.9005 220.146 32.3452 230.152 38.1196C242.008 44.9594 250.703 50.8627 253.171 64.6886C255.67 78.6691 248.307 87.1417 248.225 87.2276L245.199 90.6303H245.147V206.488H254.4V90.6303H254.452L257.478 87.2276C257.56 87.1417 264.923 78.6691 262.424 64.6886C259.956 50.8627 249.712 44.9594 237.856 38.1196C227.849 32.3452 216.665 25.9005 210.015 13.6128Z" fill="#4E0076"/>
<path d="M337.078 64.6972C339.546 50.8627 349.791 44.9595 361.646 38.1196C371.663 32.3452 382.837 25.9005 389.487 13.6128C396.138 25.9005 407.322 32.3452 417.329 38.1196C429.184 44.9595 439.429 50.8627 441.897 64.6886C444.396 78.6692 437.033 87.1417 436.95 87.2276L433.924 90.6304H433.873V206.488H345.102V90.6562L345.081 90.6304L342.004 87.219C341.932 87.1417 334.589 78.6691 337.078 64.6972ZM337.873 89.7969L337.884 89.7883L339.939 91.5154V210.784H439.036V91.5154L441.091 89.7969C441.473 89.3758 449.828 79.8807 446.998 64.0613C444.21 48.388 432.035 41.3763 420.262 34.5879C409.047 28.1175 397.439 21.4237 391.956 6.92759L389.487 0.431394L387.03 6.92759C381.536 21.4237 369.928 28.1175 358.713 34.5879C346.94 41.3763 334.775 48.388 331.976 64.0613C329.147 79.9065 337.512 89.4016 337.873 89.7969Z" fill="#FABB1E"/>
<path d="M439.036 210.784H382.711C382.725 209.401 382.654 207.955 382.492 206.488H424.62H433.873V90.6304H433.924L436.95 87.2276C437.021 87.1537 442.419 80.9428 442.414 70.3968C442.413 68.6147 442.258 66.7088 441.897 64.6886C439.429 50.8627 429.184 44.9595 417.329 38.1196C407.322 32.3452 396.138 25.9005 389.487 13.6128C382.837 25.9005 371.663 32.3452 361.646 38.1196C349.79 44.9595 339.546 50.8627 337.078 64.6972C336.719 66.7165 336.564 68.6207 336.564 70.402C336.56 80.9428 341.942 87.1529 342.004 87.219L345.081 90.6304L345.102 90.6562V206.488H345.601C345.697 207.907 345.869 209.352 346.118 210.784H339.939V91.5154L337.883 89.7883L337.873 89.7969C337.564 89.4583 331.398 82.4612 331.393 70.5257C331.393 68.509 331.567 66.3513 331.976 64.0613C334.775 48.388 346.94 41.3763 358.713 34.5879C369.928 28.1175 381.536 21.4237 387.03 6.92759L389.487 0.431394L391.956 6.92759C397.439 21.4237 409.047 28.1175 420.262 34.5879C432.035 41.3763 444.21 48.388 446.998 64.0613C447.407 66.347 447.583 68.5021 447.582 70.5163C447.58 82.4362 441.419 89.4368 441.091 89.7969L439.036 91.5154V210.784Z" fill="#B58418"/>
<path d="M342.004 87.219L345.081 90.6303L345.102 90.6561V206.488H424.62V90.6303H424.671L427.697 87.2276C427.78 87.1417 435.143 78.6691 432.644 64.6886C430.176 50.8627 421.48 44.9594 409.625 38.1195C399.618 32.3452 396.138 25.9005 389.487 13.6128C382.837 25.9005 371.663 32.3452 361.646 38.1195C349.79 44.9594 339.546 50.8627 337.078 64.6972C334.589 78.6691 341.932 87.1417 342.004 87.219Z" fill="white"/>
<path d="M351.878 72.1815C350.411 72.2245 344.793 72.2245 336.614 72.2159C336.542 70.9528 336.542 69.6209 336.645 68.2117L336.831 68.2632C341.86 69.6724 347.344 69.2772 352.177 71.2707C352.724 71.4941 352.425 72.1644 351.878 72.1815Z" fill="#E7E8E5"/>
<path d="M440.008 58.3213C411.919 58.2354 363.361 57.9776 359.489 57.9776C359.148 57.9776 359.106 57.1011 359.303 56.9035C360.118 56.0614 361.275 56.027 362.483 56.1559C363.268 56.2333 364.032 56.4137 364.828 56.4309C366.232 56.4567 367.461 55.9927 368.669 55.4341C372.191 53.8187 375.268 51.0002 379.296 50.4675C383.313 49.9347 387.671 50.3472 391.306 48.5771C394.373 47.0905 396.614 44.6158 399.888 43.3784C402.759 42.3043 405.939 42.5019 408.81 43.4815C412.239 44.6501 414.717 46.7038 417.237 48.8778C420.294 51.5072 424.445 52.7875 428.731 51.4471C430.456 50.8971 432.025 50.0378 433.833 49.6855L434.029 49.6512C436.507 52.1345 438.552 54.9443 440.008 58.3213Z" fill="#E7E8E5"/>
<path d="M391.771 150.591C389.106 150.66 367.544 150.583 345.103 150.488V137.711C346.683 138.724 348.108 139.919 349.533 141.148C352.58 143.786 356.742 145.066 361.027 143.717C362.752 143.176 364.322 142.316 366.129 141.955C367.781 141.629 369.547 141.68 371.168 142.084C373.017 142.548 374.514 143.442 375.805 144.611C377.303 145.951 378.635 147.128 380.793 147.73C384.459 148.761 388.466 148.469 391.988 149.921C392.39 150.093 392.173 150.583 391.771 150.591Z" fill="#E7E8E5"/>
<path d="M433.874 178.183V191.983C398.184 192.009 361.337 192.017 361.285 191.888C356.711 191.888 358.115 189.706 358.569 189.379C361.957 186.896 366.315 185.306 370.714 185.341C373.471 185.358 376.229 185.624 378.976 185.461C382.559 185.255 385.482 184.155 388.642 182.849C392.969 181.07 396.996 180.288 401.819 180.847C407.695 181.525 413.364 183.459 419.375 182.763C424.59 182.161 429.227 180.142 433.874 178.183Z" fill="#E7E8E5"/>
<path d="M389.487 13.6128C396.138 25.9005 399.618 32.3452 409.625 38.1195C421.48 44.9594 430.176 50.8627 432.644 64.6886C435.143 78.6691 427.78 87.1417 427.697 87.2276L424.671 90.6303H424.62V206.488H433.873V90.6303H433.924L436.95 87.2276C437.033 87.1417 444.396 78.6691 441.897 64.6886C439.429 50.8627 429.184 44.9594 417.329 38.1195C407.322 32.3452 396.138 25.9005 389.487 13.6128Z" fill="#4E0076"/>
<path d="M97.5017 72.154C112.767 90.4645 130.809 107.647 136.68 109.153C145.776 111.488 182.496 106.453 193.882 102.518C197.609 101.23 190.527 78.4156 186.339 77.5039C184.169 77.0313 172.363 79.3325 161.119 81.6336C150.659 83.7741 140.688 85.9137 139.412 85.8227C138.003 85.7213 119.814 74.1682 106.736 66.7878C94.5819 59.929 92.8675 66.5945 97.5017 72.154Z" fill="#F26162"/>
<path d="M189.128 103.849C192.604 103.368 208.294 100.033 212.403 98.3201C216.511 96.6067 227.889 90.9878 226.577 88.324C225.265 85.6611 221.77 87.0918 221.77 87.0918C221.77 87.0918 226.107 84.1067 224.483 81.5228C222.858 78.9389 217.513 81.3097 217.513 81.3097C217.513 81.3097 221.688 77.9826 219.839 75.4984C217.989 73.0142 213.111 76.1214 213.111 76.1214C213.111 76.1214 217.106 73.223 214.511 71.6918C211.389 69.8503 204.775 75.8627 200.064 77.4799C198.994 77.8477 177.717 83.6848 177.717 83.6848L189.128 103.849Z" fill="#F26162"/>
<path d="M213.536 75.8619C208.659 80.2734 205.576 81.5245 198.633 83.1374C198.498 83.1684 198.525 83.3376 198.671 83.3153C205.649 82.2343 209.797 81.1129 213.814 76.0406C214.01 75.7923 213.768 75.6513 213.536 75.8619Z" fill="#17282F"/>
<path d="M217.892 80.9531C212.329 85.1799 209.001 86.5608 201.883 88.6798C201.782 88.7099 201.835 88.8499 201.94 88.8267C209.138 87.2182 213.245 86.0229 218.113 81.2126C218.334 80.9952 218.146 80.7598 217.892 80.9531Z" fill="#17282F"/>
<path d="M221.403 87.1907C215.65 90.9698 212.082 92.611 204.844 93.9549C204.674 93.9859 204.715 94.1895 204.889 94.1715C212.435 93.3784 216.908 91.3573 221.528 87.3436C221.843 87.0695 221.766 86.9526 221.403 87.1907Z" fill="#17282F"/>
<path d="M172.23 82.0839C172.23 82.0839 177.946 76.2889 181.155 74.188C184.365 72.0879 199.908 67.8001 201.249 70.4475C202.982 73.8649 194.616 77.7609 190.209 79.2388C190.209 79.2388 194.227 87.1417 188.975 90.9827C183.723 94.8245 172.23 82.0839 172.23 82.0839Z" fill="#F26162"/>
<path d="M201.343 71.5122C200.128 75.5448 194.187 77.1852 190.043 78.8754C189.728 79.0043 189.747 79.2535 189.916 79.4279C191.325 82.8307 192.081 87.9597 189.266 90.9939C189.183 91.0824 189.329 91.1889 189.426 91.109C192.995 88.1849 192.765 83.0962 190.924 79.4485C195.206 77.7678 201.075 75.9134 201.392 71.5191L201.343 71.5122Z" fill="#17282F"/>
<path d="M183.35 108.296L172.02 78.4122C172.02 78.4122 142.943 83.9718 139.302 84.4177C137.762 84.6059 115.16 70.3934 104.882 64.5356C98.1213 60.6835 89.7802 61.859 97.1608 73.2814C101.482 79.9684 126.334 109.769 135.562 111.574C142.903 113.009 183.35 108.296 183.35 108.296Z" fill="#FABB1E"/>
<path d="M173.627 106.506C172.482 104.696 169.355 96.6917 168.603 94.6905C167.866 92.7304 165.174 84.5836 164.411 82.5264C164.368 82.4139 164.555 82.3331 164.6 82.4465C165.398 84.4719 168.87 92.4211 169.645 94.4146C170.422 96.4142 173.421 104.426 173.755 106.469L173.627 106.506Z" fill="#17282F"/>
<path d="M140.013 111.844C138.065 111.844 136.525 111.761 135.558 111.571C130.51 110.584 120.775 101.206 112.29 91.8231C110.32 83.8695 107.939 76.3869 105.07 71.5929C105.12 71.2681 105.159 70.9476 105.19 70.6374L144.95 111.716C143.125 111.798 141.457 111.844 140.013 111.844Z" fill="#F4AC12"/>
<path d="M184.503 365.308C181.73 366.028 102.664 365.218 99.6808 363.648C98.534 363.067 98.0092 353.795 97.7752 342.578C97.7739 342.461 97.7731 342.344 97.772 342.227C97.7174 339.916 97.6791 337.535 97.6743 335.122C97.6731 334.79 97.6719 334.458 97.659 334.126L101.486 301.141L154.377 301.557L149.166 334.234L149.106 335.528L148.788 342.291L148.758 342.987C148.758 342.987 178.849 354.183 181.906 356.188C184.938 358.184 187.278 364.597 184.503 365.308Z" fill="#F26162"/>
<path d="M184.503 365.308C181.73 366.028 102.664 365.218 99.6808 363.648C98.534 363.067 98.0092 353.795 97.7752 342.578C97.7739 342.461 97.7731 342.344 97.772 342.227C97.7174 339.916 97.6791 337.535 97.6743 335.122C97.6731 334.79 97.6719 334.458 97.659 334.126L149.166 334.234L149.106 335.528L148.788 342.291L148.758 342.987C148.758 342.987 178.849 354.183 181.906 356.188C184.938 358.184 187.278 364.597 184.503 365.308Z" fill="#E7E8E5"/>
<path d="M184.51 365.303C183.083 365.673 161.602 365.638 140.605 365.301C136.384 365.234 132.187 365.157 128.184 365.07C113.211 364.742 100.837 364.249 99.6873 363.645C98.5505 363.072 98.0281 354.056 97.7949 343.045C97.7949 342.889 97.7828 342.734 97.7828 342.578C97.7828 342.461 97.7828 342.335 97.7708 342.218H97.8313L148.787 342.287L148.763 342.987C148.763 342.987 178.858 354.177 181.907 356.18C184.944 358.183 187.28 364.592 184.51 365.303Z" fill="#FABB1E"/>
<path d="M183.647 362.833C170.323 362.433 116.537 361.832 103.329 362.251C103.221 362.255 103.22 362.314 103.328 362.319C116.522 362.947 170.314 363.198 183.645 363.009C183.926 363.004 183.929 362.842 183.647 362.833Z" fill="#17282F"/>
<path d="M154.464 342.466C149.232 341.625 142.808 342.207 138.752 345.172C138.595 345.286 138.8 345.464 138.971 345.423C144.166 344.164 149.011 343.371 154.435 342.999C154.817 342.973 154.84 342.527 154.464 342.466Z" fill="#17282F"/>
<path d="M158.221 344.34C152.989 343.5 146.564 344.081 142.508 347.045C142.351 347.16 142.557 347.337 142.727 347.296C147.923 346.038 152.768 345.245 158.192 344.872C158.574 344.847 158.596 344.4 158.221 344.34Z" fill="#17282F"/>
<path d="M161.978 346.214C156.745 345.373 150.321 345.954 146.265 348.918C146.108 349.033 146.314 349.211 146.484 349.17C151.68 347.911 156.525 347.119 161.949 346.746C162.331 346.72 162.353 346.274 161.978 346.214Z" fill="#17282F"/>
<path d="M151.834 342.432L94.89 342.443C94.89 342.443 106.327 235.488 105.878 233.621C105.309 231.228 101.944 220.404 97.4649 206.262C96.0604 201.836 94.5471 197.09 92.9735 192.169C88.7245 178.864 84.0394 164.323 79.9599 151.67C73.8347 132.715 69.0532 122.946 69.0532 122.946L117.312 122.938C117.312 122.938 156.983 214.278 158.564 233.155C159.943 249.616 151.834 342.432 151.834 342.432Z" fill="#17282F"/>
<path d="M149.309 334.62C140.613 334.476 143.111 334.418 134.413 334.352C130.156 334.321 102.186 334.13 98.2104 334.66V334.803C102.187 335.331 130.157 335.13 134.413 335.096C143.111 335.028 140.613 334.971 149.309 334.824C149.473 334.822 149.473 334.623 149.309 334.62Z" fill="#273E47"/>
<path d="M116.592 227.082C114.721 220.463 111.931 213.976 109.5 207.48C104.561 194.279 99.5816 181.086 94.5936 167.897C92.0994 161.303 80.5226 136.632 79.3786 133.353C78.9132 132.019 78.659 132.752 79.2552 134.446C80.4569 137.861 100.24 186.773 105.242 200.174C107.751 206.891 110.276 213.606 112.785 220.324C113.985 223.534 115.16 226.762 115.867 230.071C116.603 233.522 116.643 237.013 116.373 240.5C115.829 247.505 114.821 254.502 114.018 261.491C113.214 268.496 112.41 275.501 111.606 282.505C110.005 296.444 108.403 310.384 106.847 324.327C106.65 326.095 106.458 327.861 106.289 329.631C106.233 330.222 107.346 330.177 107.423 329.607C109.295 315.824 110.729 301.995 112.335 288.19C113.932 274.453 115.53 260.715 117.122 246.978C117.522 243.529 117.978 240.074 117.981 236.606C117.983 233.389 117.477 230.217 116.592 227.082Z" fill="#273E47"/>
<path d="M111.833 122.939C108.489 143.783 102.114 177.909 97.4649 206.262C86.57 171.91 69.0532 122.946 69.0532 122.946L111.833 122.939Z" fill="#273E47"/>
<path d="M125.616 365.931C122.846 366.66 43.7775 366.081 40.7867 364.52C39.6375 363.943 39.0707 354.674 38.7855 343.457C38.7839 343.339 38.7827 343.222 38.7806 343.105C38.7157 340.795 38.6669 338.413 38.6511 336.001C38.6483 335.669 38.6455 335.336 38.631 335.005C38.4426 318.817 39.89 302.019 39.89 302.019L91.5725 302.281L90.1385 334.961L90.084 336.256L89.7976 343.02L89.7697 343.716C89.7697 343.716 119.912 354.823 122.978 356.818C126.018 358.806 128.387 365.213 125.616 365.931Z" fill="#F26162"/>
<path d="M125.616 365.931C122.846 366.66 43.7775 366.081 40.7867 364.52C39.6374 363.943 39.0707 354.674 38.7855 343.457C38.7839 343.339 38.7827 343.222 38.7806 343.105C38.7157 340.795 38.6669 338.413 38.6511 336.001C38.6483 335.669 38.6455 335.336 38.631 335.005L90.1385 334.961L90.0839 336.256L89.7976 343.02L89.7697 343.716C89.7697 343.716 119.912 354.823 122.978 356.818C126.018 358.806 128.387 365.213 125.616 365.931Z" fill="#E7E8E5"/>
<path d="M125.616 365.931C122.846 366.66 43.7776 366.081 40.7868 364.52C39.6375 363.943 39.0707 354.674 38.7855 343.457C38.7839 343.339 38.7827 343.222 38.7806 343.105L89.7976 343.02L89.7697 343.716C89.7697 343.716 119.912 354.823 122.978 356.818C126.018 358.806 128.387 365.213 125.616 365.931Z" fill="#FABB1E"/>
<path d="M107.764 366.243C93.2705 366.243 72.9714 366.025 58.5085 365.612H80.824H126.236C126.222 365.625 126.206 365.637 126.192 365.649C126.032 365.777 125.841 365.873 125.616 365.931C124.815 366.142 117.635 366.243 107.764 366.243Z" fill="#B58418"/>
<path d="M124.749 363.459C111.424 363.099 57.6347 362.656 44.4283 363.113C44.3205 363.117 44.3197 363.175 44.4278 363.181C57.6258 363.77 111.418 363.863 124.748 363.635C125.029 363.63 125.031 363.467 124.749 363.459Z" fill="#17282F"/>
<path d="M95.4742 343.178C90.2381 342.353 83.816 342.954 79.7743 345.929C79.6175 346.045 79.824 346.222 79.9942 346.179C85.1835 344.906 90.0251 344.099 95.4472 343.711C95.8296 343.684 95.8494 343.237 95.4742 343.178Z" fill="#17282F"/>
<path d="M99.2391 345.041C94.0031 344.215 87.5809 344.816 83.5392 347.792C83.3828 347.907 83.5889 348.085 83.7587 348.042C88.9484 346.768 93.7904 345.962 99.2121 345.574C99.5941 345.546 99.6143 345.1 99.2391 345.041Z" fill="#17282F"/>
<path d="M103.004 346.903C97.7683 346.078 91.3458 346.678 87.3041 349.655C87.1477 349.77 87.3542 349.947 87.5244 349.905C92.7137 348.631 97.5557 347.824 102.977 347.436C103.36 347.408 103.379 346.962 103.004 346.903Z" fill="#17282F"/>
<path d="M116.984 122.938C116.984 122.938 115.877 136.55 110.596 151.257C110.172 152.472 109.714 153.669 109.218 154.816C109.218 154.816 104.948 156.422 96.5431 160.567C96.5431 160.567 95.991 175.508 95.4391 192.169C94.8275 210.795 94.1922 231.571 94.3265 235.977C94.815 252.464 91.7923 343.115 91.7923 343.115L34.8612 343.31C34.8612 343.31 45.1257 242.075 45.0519 236.035C44.9401 226.328 47.7946 183.424 49.9991 152.134C51.3485 132.856 52.457 122.95 52.457 122.95L116.984 122.938Z" fill="#17282F"/>
<path d="M89.8391 334.971C81.1422 334.857 83.6401 334.791 74.942 334.755C70.6854 334.737 42.7141 334.642 38.7411 335.186L38.7415 335.328C42.7218 335.844 70.6898 335.547 74.946 335.499C83.6433 335.4 81.1451 335.353 89.8403 335.175C90.0033 335.172 90.0029 334.974 89.8391 334.971Z" fill="#273E47"/>
<path d="M57.243 129.583C56.2026 155.126 55.0989 175.715 53.6854 201.246C52.2671 226.865 50.3542 252.476 47.6954 278.032C46.2101 292.31 44.8119 312.394 42.8998 326.64C42.8869 326.736 43.0684 326.77 43.0845 326.673C47.2234 301.334 49.5247 270.004 51.5563 244.506C53.5874 219.012 54.9614 193.474 56.0352 167.943C56.6427 153.501 57.1062 144.011 57.6392 129.566C57.6472 129.361 57.2515 129.38 57.243 129.583Z" fill="#273E47"/>
<path d="M59.4326 146.18C60.8324 145.891 62.3314 145.799 63.7598 145.618C64.9144 145.47 66.0637 145.307 67.2052 145.105C69.3533 144.723 71.5317 144.151 73.2849 143.046C76.1249 141.258 79.3819 132.219 79.78 131.642C80.4633 130.653 80.6679 131.523 80.6683 131.615C80.6735 132.665 77.6807 140.581 76.5257 142.058C74.4136 144.764 70.637 145.852 66.8615 146.236C65.7793 146.346 64.6877 146.408 63.5989 146.458C62.2512 146.519 60.8175 146.616 59.4741 146.483C59.2692 146.462 59.2111 146.226 59.4326 146.18Z" fill="#273E47"/>
<path d="M109.033 155.035C103.482 156.571 98.1225 158.753 92.999 161.04C92.7977 161.129 92.9304 161.38 93.1478 161.306C98.5497 159.44 104.058 157.655 109.325 155.553C109.738 155.389 109.459 154.917 109.033 155.035Z" fill="#273E47"/>
<path d="M110.66 125.283C110.645 125.132 110.317 125.099 110.318 125.261C110.362 130.418 109.953 134.955 109.412 139.774C109.161 142.012 106.924 154.377 102.099 153.476C101.291 153.325 100.879 152.685 100.752 151.706C100.6 150.528 101.151 149.084 101.392 147.914C101.928 145.325 102.359 142.729 102.635 140.113C103.15 135.232 103.176 130.352 102.438 125.485C102.414 125.327 102.127 125.338 102.127 125.5C102.134 132.257 101.914 139.001 100.658 145.693C100.054 148.91 98.0402 153.752 102.223 154.246C106.484 154.75 109.24 146.639 109.759 144.421C111.21 138.229 111.268 131.546 110.66 125.283Z" fill="#273E47"/>
<path d="M102.227 153.808C101.791 154.638 101.44 155.503 101.142 156.372C100.911 157.045 100.596 157.775 100.691 158.478C100.71 158.614 100.935 158.628 101.025 158.535C101.591 157.958 101.83 157.169 102.146 156.485C102.513 155.693 102.902 154.906 103.24 154.105C103.465 153.574 102.496 153.296 102.227 153.808Z" fill="#273E47"/>
<path d="M157.23 303.243C157.23 303.243 149.892 303.218 134.298 303.202C131.324 301.914 124.23 245.388 124.23 245.388C124.23 245.388 117.277 303.177 113.787 303.177C81.4012 303.143 40.2655 303.118 32.3658 303.243C29.154 303.293 49.7818 139.749 50.6805 133.08C51.7439 125.207 55.2555 99.6872 80.732 69.4164C86.4324 62.6401 99.4239 64.2091 103.545 69.3666C113.014 81.2178 117.629 122.892 119.673 127.269C119.704 127.335 155.118 207.249 160.57 239.081C161.913 246.904 158.388 303.193 157.23 303.243Z" fill="#4E0076"/>
<path d="M111.032 136.111H103.749C103.215 132.638 102.906 130.438 102.849 129.638C102.538 125.279 98.9329 89.0424 97.5795 75.4846C98.8324 75.9649 100.103 76.2562 101.342 76.2562C101.551 76.2562 101.758 76.2476 101.964 76.2305C103.341 76.117 104.155 74.9312 104.632 73.4833C105.85 85.6706 109.734 124.645 110.066 129.306C110.12 130.055 110.47 132.481 111.032 136.111Z" fill="#F4AC12"/>
<path d="M73.6395 78.5299C57.013 104.442 50.7168 127.366 63.8918 133.487C72.6427 137.553 81.8886 114.063 82.1141 113.571C82.887 111.884 88.8774 97.6627 89.9836 80.4195C91.2002 61.45 81.0677 66.9528 73.6395 78.5299Z" fill="#F26162"/>
<path d="M73.6395 78.5299C57.013 104.442 50.7168 127.366 63.8918 133.487C72.6427 137.553 83.6941 118.812 83.9201 118.32C84.693 116.633 88.8774 97.6627 89.9836 80.4195C91.2002 61.4499 81.0677 66.9528 73.6395 78.5299Z" fill="#FABB1E"/>
<path d="M89.8169 82.5952C88.6269 94.0383 87.426 105.558 84.4119 116.784C86.6341 105.993 88.0331 93.4694 89.8169 82.5952Z" fill="#17282F"/>
<path d="M90.8956 84.416C90.5983 86.0134 90.1453 87.6813 89.0004 89.0157C89.8395 87.5438 90.2526 85.9524 90.8956 84.416Z" fill="#17282F"/>
<path d="M66.8289 132.385C74.8872 135.367 97.7687 128.483 117.824 117.367C121.641 115.251 107.657 93.1274 103.452 95.2387C92.253 100.86 69.6724 109.607 63.0737 118.027C57.9409 124.575 61.2559 130.323 66.8289 132.385Z" fill="#F26162"/>
<path d="M122.107 95.2413C120.164 95.0874 120.252 94.266 123.176 92.764C126.132 91.2387 139.267 87.3109 137.165 83.7346C135.065 80.1419 116.59 85.9464 111.956 88.7485C107.314 91.5421 101.049 97.3895 101.049 97.3895C104.925 96.8412 114.485 96.2363 122.107 95.2413Z" fill="#F26162"/>
<path d="M109.156 119.764C120.005 117.901 133.651 116.114 142.875 109.311C144.683 107.977 144.893 106.48 144.893 106.48C149.094 103.49 148.599 100.997 148.599 100.997C151.452 97.2477 150.511 94.7541 150.511 94.7541C150.511 94.7541 155.395 91.2001 153.214 88.4693C150.78 85.4008 144.397 90.9921 138.548 92.3404C125.147 95.4295 105.023 96.8069 101.049 97.3895L109.156 119.764Z" fill="#F26162"/>
<path d="M127.334 103.515C131.255 102.543 135.138 101.67 138.875 100.276C142.976 98.7454 146.602 96.7201 150.358 94.7326C150.476 94.6707 150.594 94.7953 150.491 94.8709C144.4 99.3349 135.501 102.589 127.385 103.659C127.189 103.685 127.137 103.563 127.334 103.515Z" fill="#17282F"/>
<path d="M128.477 110.291C132.227 109.174 138.802 107.178 148.517 100.913L148.57 100.955C142.936 105.697 136.336 108.694 128.543 110.433C128.301 110.488 128.227 110.365 128.477 110.291Z" fill="#17282F"/>
<path d="M129.175 113.922C135.462 111.829 139.097 109.869 144.853 106.475L144.903 106.519C138.865 110.93 136.053 111.979 129.235 114.106C129.001 114.179 128.93 114.004 129.175 113.922Z" fill="#17282F"/>
<path d="M102.634 124.777C106.758 122.736 111.256 120.84 115.328 118.721C111.38 121.113 106.993 122.96 102.634 124.777Z" fill="#17282F"/>
<path d="M94.3192 92.9702L105.377 125.592C105.377 125.592 71.5455 137.559 65.4098 133.793C59.2745 130.027 55.0489 122.978 65.7683 110.826C68.4529 107.783 94.3192 92.9702 94.3192 92.9702Z" fill="#FABB1E"/>
<path d="M87.6999 100.514C88.2784 102.064 88.6971 103.661 89.1614 105.236C89.6262 106.813 90.0715 108.393 90.4915 109.979C91.3309 113.149 92.1493 116.32 92.9162 119.502C93.126 120.373 93.3338 121.243 93.5242 122.117C93.7279 123.052 93.7872 124.008 94.001 124.939L93.8606 124.961C93.6367 124.186 93.2764 123.434 93.0328 122.662C92.7799 121.862 92.5495 121.057 92.3256 120.251C91.8864 118.669 91.4535 117.087 91.0303 115.502C90.1857 112.335 89.3595 109.161 88.6447 105.972C88.2409 104.171 87.7681 102.364 87.4966 100.546C87.4804 100.439 87.6615 100.412 87.6999 100.514Z" fill="#17282F"/>
<path d="M96.2463 98.6552L94.3193 92.9702C89.2599 96.5912 70.9968 106.844 67.2827 109.969C64.6736 112.164 62.728 114.823 61.0054 117.559C62.2935 114.669 64.1983 111.924 66.5877 109.501C70.8197 105.654 91.7573 94.1225 94.5613 92.507L96.2463 98.6552Z" fill="#17282F"/>
<path d="M104.791 123.814L105.403 125.602C98.2104 128.234 90.8508 130.572 83.3009 132.419C69.4917 135.737 58.9433 137.098 56.8395 122.402C56.5165 119.14 56.2926 115.799 57.3846 112.617C59.4161 106.285 62.3512 100.207 65.3622 94.1775C63.9152 97.2142 62.5404 100.273 61.2418 103.355C59.4657 107.96 56.9775 112.592 56.9868 117.492C57.0255 122.237 57.4282 127.521 61.2362 131.305C63.7752 133.931 67.8684 134.568 71.7258 134.128C79.5077 133.393 87.0214 131.261 94.385 129.1C98.045 128.018 101.84 126.768 105.354 125.596L104.791 123.814Z" fill="#17282F"/>
<path d="M101.761 75.7175C97.5836 76.3576 89.8767 70.5738 87.2977 66.3573C87.1231 66.0677 87.8234 63.1109 88.4623 59.4856C88.8395 57.2841 89.1949 54.8266 89.3183 52.5649L106.771 56.6319C106.771 56.6319 104.779 61.3116 104.595 65.2566C104.583 65.5865 104.607 65.8942 104.665 66.1889L104.683 66.3436C104.944 68.1188 105.798 75.0954 101.761 75.7175Z" fill="#F26162"/>
<path d="M104.662 66.1906L104.678 66.3393C104.125 66.3891 103.52 66.39 102.865 66.3616C92.6661 65.8177 90.8089 55.6859 90.4967 52.8425L94.857 53.8573L106.771 56.6337C106.771 56.6337 104.776 61.315 104.6 65.2583C104.584 65.5865 104.605 65.8942 104.662 66.1906Z" fill="#17282F"/>
<path d="M87.2724 36.2987C85.2662 41.3101 88.2953 55.893 92.6864 59.1909C99.0515 63.9702 109.611 64.5502 114.697 58.3711C119.626 52.3828 115.258 33.433 110.342 30.4255C103.099 25.9951 90.2357 28.8977 87.2724 36.2987Z" fill="#F26162"/>
<path d="M104.426 45.2731L104.348 45.371C104.559 46.3523 104.595 47.5064 103.542 47.9584L103.562 48.0125C104.889 47.7066 104.822 46.1753 104.426 45.2731Z" fill="#17282F"/>
<path d="M103.152 44.3666C101.158 44.4697 101.559 47.6679 103.406 47.5734C105.224 47.4797 104.823 44.2806 103.152 44.3666Z" fill="#17282F"/>
<path d="M111.394 44.5212L111.499 44.6011C111.585 45.5945 111.891 46.7218 113.046 46.9599L113.043 47.0166C111.664 46.9727 111.276 45.4733 111.394 44.5212Z" fill="#17282F"/>
<path d="M112.365 43.3973C114.331 43.1154 114.887 46.2991 113.065 46.5594C111.272 46.8172 110.717 43.6336 112.365 43.3973Z" fill="#17282F"/>
<path d="M101.502 43.1721C102.048 43.0639 102.528 42.8903 103.053 42.7382C103.646 42.5663 104.139 42.4787 104.529 42.0533C104.737 41.8248 104.654 41.414 104.397 41.2302C103.799 40.8014 103.008 40.8667 102.284 41.0497C101.499 41.249 100.957 41.5635 100.505 42.1161C100.067 42.6514 100.784 43.3156 101.502 43.1721Z" fill="#17282F"/>
<path d="M113.728 41.5283C113.167 41.5008 112.656 41.3994 112.106 41.3264C111.484 41.243 110.979 41.2284 110.501 40.8667C110.243 40.6733 110.234 40.2566 110.445 40.0383C110.937 39.5296 111.729 39.4789 112.483 39.5537C113.299 39.6362 113.904 39.8665 114.472 40.3442C115.023 40.8065 114.467 41.5644 113.728 41.5283Z" fill="#17282F"/>
<path d="M103.919 54.2243C104.244 54.4322 104.578 54.7278 105.029 54.7218C105.461 54.7158 105.945 54.5199 106.323 54.3652L106.381 54.4116C106.11 54.818 105.466 55.111 104.885 55.0767C104.318 55.0432 103.994 54.678 103.807 54.2784L103.919 54.2243Z" fill="#17282F"/>
<path d="M104.843 51.1523C105.64 51.9566 106.713 52.3441 107.831 52.4266C108.33 52.4662 108.846 52.4378 109.347 52.3596C109.446 52.3502 109.545 52.333 109.632 52.3098C109.721 52.2934 109.801 52.278 109.898 52.2539C110.04 52.2256 110.106 52.1242 110.117 52.0125L110.116 52.0056L110.092 51.905L110.091 51.8973L110.077 51.8105C110.008 51.0457 109.771 49.8934 109.771 49.8934C110.134 50.0043 111.982 50.5001 111.904 50.104C111.245 46.825 110.512 43.1773 108.995 40.0254C108.952 39.9198 108.748 39.961 108.773 40.0693C109.252 43.2417 110.42 46.3249 110.963 49.5051C110.378 49.3779 109.419 49.1339 108.923 49.182C108.792 49.2241 109.431 51.4032 109.429 51.7486L109.425 51.7856C107.852 52.0795 106.601 51.789 104.947 51.0543C104.848 51.0045 104.758 51.0801 104.843 51.1523Z" fill="#17282F"/>
<path d="M108.796 52.1714C108.796 52.1714 108.042 53.1218 106.93 53.5136C106.521 53.658 106.073 53.7319 105.589 53.6571C104.597 53.5067 104.509 52.7892 104.634 52.1628C104.734 51.649 104.988 51.197 104.988 51.197C104.988 51.197 106.504 52.1869 108.796 52.1714Z" fill="#17282F"/>
<path d="M106.93 53.5136C106.521 53.658 106.073 53.7319 105.589 53.6571C104.597 53.5067 104.509 52.7892 104.634 52.1628C105.686 52.1903 106.77 52.7016 106.93 53.5136Z" fill="#F576B7"/>
<path d="M114.187 36.1552C113.388 34.8878 112.002 33.3557 111.008 33.146C110.013 32.9364 110.096 35.3595 107.888 35.5881C106.521 35.7307 105.35 35.1722 104.029 34.6137C102.469 33.9538 100.701 33.2947 98.1559 33.787C95.3181 34.3361 92.6149 35.9318 94.2406 43.7625C95.4967 49.8178 88.1288 51.4616 88.1288 51.4616C88.1288 51.4616 83.4643 38.0139 87.8609 33.3076C92.2579 28.6021 102.146 25.9504 109.767 29.8601C112.544 31.2857 114.187 36.1552 114.187 36.1552Z" fill="#17282F"/>
<path d="M92.6912 49.3555C92.6912 49.3555 88.5733 44.6681 85.9266 45.8505C83.2795 47.0338 86.3958 53.8401 89.5168 54.7604C92.6379 55.6816 93.7545 53.3744 93.7545 53.3744L92.6912 49.3555Z" fill="#F26162"/>
<path d="M86.8802 47.7839L86.8641 47.8509C89.0529 48.5538 90.2127 50.1787 91.0283 51.8647C90.3748 51.2176 89.4882 50.8644 88.4087 51.4909L88.4684 51.5845C89.3623 51.4264 90.0089 51.5493 90.6169 52.1233C91.0473 52.5297 91.343 53.0445 91.6524 53.5145C91.7557 53.6709 92.1074 53.5858 92.032 53.4045L92.0142 53.3641C92.0558 51.124 89.8722 47.9979 86.8802 47.7839Z" fill="#17282F"/>
<path d="M86.1637 45.2645C86.1637 45.2645 93.5932 38.8173 101.828 36.8152C110.063 34.813 114.187 35.5726 114.187 35.5726C114.187 35.5726 109.462 22.3852 93.7545 27.2041C81.4174 30.9892 86.1637 45.2645 86.1637 45.2645Z" fill="#4E0076"/>
<path d="M86.3247 41.7844C90.9408 37.2534 97.6259 33.9675 104.764 33.2465C105.579 33.1469 106.399 33.1031 107.218 33.1031C108.798 33.1031 110.374 33.2646 111.906 33.5009C111.648 33.5035 111.391 33.5052 111.135 33.5052C110.797 33.5052 110.462 33.5026 110.127 33.4966L109.244 33.4863L108.364 33.5507C100.129 33.9512 92.5137 37.4012 86.3247 41.7844Z" fill="#F4AC12"/>
<path d="M101.751 75.195C101.751 75.195 100.505 69.5384 99.9612 68.8716C99.4174 68.2039 88.1222 61.3176 87.4595 61.5015C86.7967 61.6862 85.7095 66.0591 86.3675 66.9107C87.0258 67.7622 95.1261 76.7942 101.964 76.2305C105.599 75.9314 105.313 68.1532 105.256 67.831C105.198 67.5087 103.453 68.9747 103.252 69.4378C103.052 69.9019 101.751 75.195 101.751 75.195Z" fill="#FABB1E"/>
<path d="M101.342 76.2563C94.644 76.2563 87.0061 67.7365 86.3675 66.9107C86.2235 66.7242 86.1634 66.3693 86.1634 65.9268C86.1649 64.3466 86.9419 61.6459 87.4594 61.5015C87.4683 61.4998 87.4788 61.4989 87.4913 61.4989C88.4191 61.4989 99.4247 68.2125 99.9612 68.8716C100.505 69.5384 101.751 75.1951 101.751 75.1951C101.751 75.1951 103.052 69.9019 103.252 69.4379C103.433 69.0194 104.873 67.7855 105.194 67.7855C105.228 67.7855 105.25 67.7992 105.256 67.831C105.266 67.8903 105.285 68.2039 105.285 68.6774C105.285 70.7697 104.928 75.9864 101.964 76.2305C101.758 76.2477 101.551 76.2563 101.342 76.2563Z" fill="#F4AC12"/>
<path d="M185.83 142.763H80.8239L29.4146 169.155V365.612H185.83V142.763Z" fill="#FABB1E"/>
<path d="M80.8239 365.612H29.4146V169.155V170.61L80.7841 147.846L80.8239 147.844V365.612Z" fill="#4E0076"/>
<path d="M185.83 365.612H80.824V147.844L185.83 144.64V168.623V206.488V210.784V231.445V234.245V244.934V249.252V261.841V264.64V365.612Z" fill="#4E0076"/>
<path d="M191.571 136.111V142.775H80.7841L24.0215 171.914V163.634L77.6126 136.111H191.571Z" fill="#FABB1E"/>
<path d="M24.0215 171.914V163.634L77.6126 136.111H191.571V142.775H185.83V142.763L80.7841 142.775L47.3 159.964L24.0215 171.914Z" fill="#7A5717"/>
<path d="M29.4146 169.155L47.2992 159.971C47.2988 159.975 47.2992 159.97 47.2988 159.974L29.4146 169.155Z" fill="#E0E1DE"/>
<path d="M47.2988 159.974C47.2992 159.97 47.2988 159.975 47.2992 159.971L80.7841 142.775V142.784L47.2988 159.974Z" fill="#F4AC12"/>
<path d="M29.4146 170.61V169.155L80.7841 142.784V147.846L29.4146 170.61Z" fill="#6B4D16"/>
<path d="M80.7841 142.784V142.775H80.801L80.7841 142.784Z" fill="#F4AC12"/>
<path d="M80.7841 147.846V142.784L80.801 142.775H80.8239V147.844L80.7841 147.846Z" fill="#6B4D16"/>
<path d="M80.824 147.844V142.775H185.83V144.64L80.824 147.844Z" fill="#5D4314"/>
<path d="M185.83 142.775H80.7841L185.83 142.763V142.775Z" fill="#6B4D16"/>
<path d="M179.449 136.111H151.589V132.705H179.449V136.111Z" fill="#17282F"/>
<path d="M137.781 85.5554C140.679 82.2429 150.592 86.0401 147.454 89.6259C144.316 93.2125 135.188 88.5174 137.781 85.5554Z" fill="#17282F"/>
<path d="M166.552 132.705H164.486V101.814C164.486 98.8443 162.13 96.0834 158.337 94.6106L144.52 89.2418L145.395 87.6847L159.211 93.0527C163.738 94.8116 166.552 98.1689 166.552 101.814V132.705Z" fill="#17282F"/>
<path d="M484.354 360.87C482.916 359.284 427.834 328.221 424.908 328.149C424.567 328.128 416.421 337.551 416.421 337.551L394.905 334.373L397.451 366.187H444.204C444.204 366.187 476.046 366.258 477.276 366.184C480.476 365.98 485.803 362.443 484.354 360.87Z" fill="#F57A76"/>
<path d="M467.702 366.217C463.634 366.217 458.883 366.212 454.722 366.206C455.819 366.201 456.521 366.193 456.685 366.184C459.885 365.98 465.212 362.443 463.763 360.87C462.763 359.767 435.827 344.413 418.523 335.135C420.958 332.349 424.667 328.149 424.906 328.149C424.907 328.149 424.907 328.149 424.908 328.149C427.834 328.221 482.916 359.284 484.354 360.87C484.522 361.051 484.598 361.259 484.599 361.484C484.604 363.214 480.107 366.003 477.276 366.184C476.854 366.209 472.819 366.217 467.702 366.217Z" fill="#ED7069"/>
<path d="M342.483 310.505L357.925 366.88C357.925 366.88 329.097 366.217 296.51 366.217C259.858 366.217 267.63 336.911 291.439 326.597C311.297 317.995 338.631 310.798 342.483 310.505Z" fill="#17282F"/>
<path d="M400.499 363.388C390.333 367.106 373.516 366.807 370.985 366.876C368.452 367.097 349.681 367.296 338.963 364.879C325.482 361.839 317.175 352.506 320.157 335.512C322.705 321 334.329 307.06 334.329 307.06L403.767 303.967C403.767 303.967 414.049 324.32 416.678 338.819C418.287 347.651 418.989 356.643 400.499 363.388Z" fill="#17282F"/>
<path d="M329.097 314.681C324.199 321.957 319.546 329.394 317.193 337.551C318.148 329.128 322.999 321.326 329.097 314.681Z" fill="#17282F"/>
<path d="M463.763 360.87C462.325 359.284 407.243 328.221 404.317 328.149C403.976 328.128 395.83 337.551 395.83 337.551L374.314 334.373L376.86 366.187H423.613C423.613 366.187 455.455 366.258 456.685 366.184C459.885 365.98 465.212 362.443 463.763 360.87Z" fill="#F57A76"/>
<path d="M374.314 334.373C361.894 332.039 349.134 331.226 336.505 329.999C327.031 328.962 317.479 330.139 307.994 330.614L298.465 331.237C309.527 330.01 320.646 328.72 331.83 328.786C339.794 329.333 347.681 330.217 355.589 331.154C361.877 331.989 368.227 332.755 374.314 334.373Z" fill="#273E47"/>
<path d="M375.693 241.112C380.12 241.186 384.101 235.292 384.231 230.56C384.24 230.212 382.988 227.188 381.545 223.43C380.68 221.147 379.782 218.588 379.165 216.203L362.132 223.057C362.132 223.057 365.192 227.739 366.237 231.901C366.32 232.25 366.362 232.58 366.367 232.901L366.383 233.069C366.5 234.993 371.413 241.038 375.693 241.112Z" fill="#F57A76"/>
<path d="M378.48 193.682C382.574 199.512 383.957 215.852 379.738 220.959C373.62 228.361 361.029 231.436 352.82 224.827C344.862 218.422 343.431 197.741 348.384 192.88C355.68 185.72 372.432 185.069 378.48 193.682Z" fill="#F57A76"/>
<path d="M379.738 220.959C377.254 222.772 365.197 220.086 363.877 218.516C362.557 216.945 363.148 210.901 362.925 208.47C362.703 206.039 359.299 206.211 358.529 206.772C353.665 210.319 354.725 216.598 353.916 215.67C353.109 214.743 350.489 211.919 349.749 209.683C349.01 207.447 351.93 199.687 351.208 197.924C350.487 196.161 347.792 197.993 345.729 198.097C345.729 198.097 347.649 184.163 369.496 187.675C383.959 190 385.161 216.999 379.738 220.959Z" fill="#17282F"/>
<path d="M346.719 194.278C346.719 194.278 354.77 197.133 364.66 200.646C374.549 204.159 382.429 205.962 382.429 205.962C382.429 205.962 384.572 189.645 370.11 185.973C354.324 181.966 346.719 194.278 346.719 194.278Z" fill="#4E0076"/>
<path d="M379.443 201.942C369.323 199.783 359.59 196.344 350.543 192.008C358.732 194.787 371.152 199.122 379.443 201.942Z" fill="#F4AC12"/>
<path d="M355.04 212.133C355.04 212.133 358.069 205.591 361.523 206.355C364.977 207.12 363.858 215.929 360.615 217.77C357.375 219.611 355.268 217.148 355.268 217.148L355.04 212.133Z" fill="#F57A76"/>
<path d="M361.126 208.875L361.169 208.949C358.916 210.309 358.173 212.512 357.846 214.705C358.361 213.78 359.249 213.15 360.709 213.631L360.674 213.756C359.594 213.785 358.899 214.084 358.409 214.911C358.062 215.495 357.91 216.177 357.724 216.808C357.662 217.018 357.228 217.002 357.25 216.77L357.256 216.717C356.403 214.074 357.779 209.847 361.126 208.875Z" fill="#17282F"/>
<path d="M408.848 305.919L415.099 327.249C415.099 327.249 392.17 329.271 377.98 329.155C360.537 329.011 299.017 323.282 299.017 323.282C317.095 314.325 327.361 312.016 327.361 312.016C327.361 312.016 346.177 248.611 366.224 231.042C375.441 222.964 386.59 226.675 391 233.832C404.946 256.461 408.848 305.919 408.848 305.919Z" fill="#FABB1E"/>
<path d="M379.194 329.16C378.781 329.16 378.379 329.158 377.98 329.155C367.628 329.069 341.752 327.017 322.424 325.363C322.052 325.331 321.684 325.299 321.317 325.267C317.094 324.904 313.215 324.564 309.916 324.269C312.696 320.621 314.781 316.735 314.781 316.735C316.533 316.909 318.177 316.989 319.72 316.989C321.434 316.989 323.025 316.891 324.504 316.714L325.356 319.228C325.356 319.228 362.91 308.01 368.67 300.871C371.579 297.265 374.295 278.009 374.293 259.119C374.293 253.601 374.061 248.115 373.534 243.058C372.933 237.291 370.11 233.998 366.752 233.998C364.415 233.998 361.818 235.592 359.533 239.057C354.783 246.255 345.018 268.288 340.139 279.308L338.595 279.832C345.867 261.369 355.882 240.105 366.224 231.042C369.9 227.82 373.885 226.474 377.626 226.474C383.264 226.474 388.348 229.53 391 233.832C404.946 256.461 408.848 305.919 408.848 305.919L415.099 327.249C415.099 327.249 393.438 329.16 379.194 329.16Z" fill="#4E0076"/>
<path d="M372.771 243.677C373.937 263.04 370.988 294.765 366.103 300.368C361.776 305.328 334.702 314.287 324.424 316.373C319.676 317.336 306.14 294.594 310.881 292.763C316.82 290.469 343.7 280.671 344.573 279.506C345.534 278.226 351.05 256.023 358.415 241.914C365.09 229.125 372.329 236.354 372.771 243.677Z" fill="#F57A76"/>
<path d="M320.988 290.352C320.988 290.352 308.222 291.186 301.679 293.353C292.918 296.253 286.789 301.758 284.388 304.194C279.375 309.279 271.481 324.458 276.338 327.112C280.735 329.515 287.863 313.661 287.863 313.661C287.863 313.661 277.39 328.827 283.323 330.911C289.257 332.995 296.272 314.199 296.272 314.199C296.272 314.199 285.932 329.983 292.459 331.326C297.392 332.341 304.898 315.615 304.898 315.615C304.898 315.615 296.123 329.233 301.142 330.459C306.689 331.813 314.781 316.735 314.781 316.735C328.169 318.064 335.216 313.9 339.816 310.613C340.929 309.817 320.988 290.352 320.988 290.352Z" fill="#F57A76"/>
<path d="M291.081 308.222C289.773 309.966 288.435 311.725 287.318 313.56C286.201 315.396 285.161 317.265 284.254 319.178C282.031 323.872 281.521 327.1 281.579 326.903C282.941 322.255 286.817 315.634 287.934 313.798C289.048 311.966 290.053 310.088 291.166 308.254L291.081 308.222Z" fill="#17282F"/>
<path d="M299.118 311.457C297.564 313.745 295.921 315.968 294.488 318.314C293.062 320.648 291.955 322.967 290.726 325.376C290.631 325.562 290.782 325.543 290.886 325.359C292.23 322.993 293.691 320.891 295.069 318.537C296.44 316.192 297.714 313.784 299.187 311.483L299.118 311.457Z" fill="#17282F"/>
<path d="M306.616 313.201C304.027 316.596 302.192 320.385 300.501 324.137C300.417 324.324 300.608 324.282 300.708 324.095C302.658 320.428 304.158 317.539 306.759 313.276L306.616 313.201Z" fill="#17282F"/>
<path d="M325.356 319.228L314.742 287.919L340.139 279.308C345.018 268.288 354.783 246.255 359.533 239.057C365.105 230.612 372.515 233.28 373.534 243.058C375.864 265.423 372.429 296.212 368.67 300.871C362.91 308.01 325.356 319.228 325.356 319.228Z" fill="#FABB1E"/>
<path d="M325.356 319.228L324.504 316.714L315.725 290.821L314.742 287.919L340.139 279.308C345.018 268.288 354.783 246.255 359.533 239.057C361.818 235.592 364.415 233.998 366.752 233.998C370.11 233.998 372.933 237.291 373.534 243.058C374.061 248.115 374.293 253.601 374.293 259.119C374.295 278.009 371.579 297.265 368.67 300.871C362.91 308.01 325.356 319.228 325.356 319.228Z" fill="#FDDB79"/>
<path d="M332.009 313.97C331.794 311.862 329.174 303.415 328.494 301.316C327.827 299.261 324.739 290.883 324.032 288.729C323.994 288.612 323.78 288.625 323.816 288.744C324.473 290.886 330.808 312.048 331.875 313.995L332.009 313.97Z" fill="#17282F"/>
<path d="M374.023 253.913C374.271 261.265 374.255 268.627 373.881 275.982C373.418 283.339 372.997 290.757 370.622 297.907C369.588 301.728 365.607 304.118 361.822 306.03C350.386 311.677 337.868 315.603 325.374 319.271L325.319 319.287L325.303 319.24L324.268 316.019L325.41 319.215L325.338 319.185C333.599 316.578 341.795 313.813 349.775 310.674C353.759 309.101 357.71 307.454 361.445 305.523C365.116 303.635 368.872 301.403 369.892 297.718C372.297 290.685 372.701 283.238 373.303 275.958C373.778 268.619 374.006 261.264 374.023 253.913Z" fill="#17282F"/>
<path d="M374.243 259.427C374.262 258.267 374.517 257.025 374.748 255.882C374.857 257.079 374.612 258.272 374.243 259.427Z" fill="#17282F"/>
<path d="M381.227 360.87C379.788 359.284 324.706 328.221 321.781 328.149C321.44 328.128 313.294 337.551 313.294 337.551L291.778 334.373L294.323 366.187H341.077C341.077 366.187 372.919 366.258 374.149 366.184C377.349 365.98 382.676 362.443 381.227 360.87Z" fill="#E84E4B"/>
<path d="M364.575 366.217C354.798 366.217 341.077 366.187 341.077 366.187H294.323L291.778 334.373L313.294 337.551C313.294 337.551 321.422 328.149 321.779 328.149C321.78 328.149 321.78 328.149 321.781 328.149C324.706 328.221 379.788 359.284 381.227 360.87C381.394 361.051 381.471 361.259 381.472 361.484C381.475 362.726 379.158 364.514 376.804 365.49C375.879 365.874 374.947 366.133 374.149 366.184C373.726 366.209 369.692 366.217 364.575 366.217Z" fill="#CF4746"/>
<path d="M239.356 310.505L254.798 366.88C254.798 366.88 225.97 366.217 193.383 366.217C156.731 366.217 164.504 336.911 188.312 326.597C208.169 317.995 235.504 310.798 239.356 310.505Z" fill="#273E47"/>
<path d="M297.372 363.388C287.206 367.106 270.389 366.807 267.858 366.876C265.325 367.097 246.554 367.296 235.835 364.879C222.354 361.839 214.047 352.506 217.03 335.512C219.578 321 231.202 307.06 231.202 307.06L300.639 303.967C300.639 303.967 310.922 324.32 313.551 338.819C315.16 347.651 315.861 356.643 297.372 363.388Z" fill="#273E47"/>
<path d="M225.97 314.681C221.072 321.957 216.419 329.394 214.066 337.551C215.021 329.128 219.872 321.326 225.97 314.681Z" fill="#17282F"/>
<path d="M360.636 360.87C359.197 359.284 304.115 328.221 301.19 328.149C300.849 328.128 292.703 337.551 292.703 337.551L271.187 334.373L273.732 366.187H320.486C320.486 366.187 352.328 366.258 353.558 366.184C356.758 365.98 362.085 362.443 360.636 360.87Z" fill="#E84E4B"/>
<path d="M271.187 334.373C258.766 332.039 246.006 331.226 233.377 329.999C223.903 328.962 214.352 330.139 204.867 330.614L195.338 331.237C206.399 330.01 217.518 328.72 228.702 328.786C236.667 329.333 244.553 330.217 252.462 331.154C258.75 331.989 265.1 332.755 271.187 334.373Z" fill="#17282F"/>
<path d="M271.43 241.112C275.858 241.186 279.84 235.292 279.97 230.56C279.979 230.212 278.725 227.188 277.283 223.43C276.418 221.147 275.52 218.588 274.903 216.203L257.871 223.057C257.871 223.057 260.931 227.739 261.976 231.901C262.059 232.25 262.101 232.58 262.105 232.901L262.122 233.068C262.238 234.993 267.152 241.038 271.43 241.112Z" fill="#E84E4B"/>
<path d="M274.219 193.682C278.312 199.512 279.695 215.852 275.475 220.959C269.359 228.361 256.768 231.436 248.559 224.827C240.6 218.422 239.169 197.741 244.123 192.88C251.419 185.72 268.171 185.069 274.219 193.682Z" fill="#E84E4B"/>
<path d="M272.333 190.692C272.333 190.692 277.759 193.734 278.932 195.886C280.106 198.037 282.049 206.796 279.084 213.193C278.013 215.505 279.279 219.665 277.006 221.628C274.713 223.609 260.936 220.086 259.615 218.516C258.294 216.945 258.886 210.901 258.664 208.47C258.441 206.039 255.037 206.211 254.268 206.772C249.403 210.319 250.462 216.598 249.655 215.67C248.846 214.743 246.227 211.919 245.487 209.683C244.747 207.447 247.668 199.687 246.946 197.924C246.224 196.161 243.53 197.993 241.468 198.097C240.212 198.16 238.809 192.018 240.158 190.629C241.506 189.239 245.237 189.088 246.731 188.703C248.225 188.319 249.629 186.334 253.665 185.457C257.701 184.581 263.088 185.517 265.239 185.772C268.637 186.174 272.333 190.692 272.333 190.692Z" fill="#17282F"/>
<path d="M250.778 212.133C250.778 212.133 253.806 205.591 257.261 206.355C260.716 207.12 259.596 215.929 256.354 217.77C253.113 219.611 251.006 217.148 251.006 217.148L250.778 212.133Z" fill="#E84E4B"/>
<path d="M256.864 208.875L256.906 208.949C254.654 210.309 253.911 212.512 253.583 214.705C254.099 213.78 254.987 213.15 256.447 213.631L256.413 213.756C255.333 213.785 254.637 214.084 254.147 214.911C253.8 215.495 253.647 216.177 253.462 216.808C253.4 217.018 252.967 217.002 252.988 216.77L252.995 216.717C252.142 214.074 253.517 209.847 256.864 208.875Z" fill="#17282F"/>
<path d="M305.721 305.919L311.972 327.249C311.972 327.249 289.043 329.271 274.853 329.155C257.41 329.011 195.889 323.282 195.889 323.282C213.968 314.325 224.234 312.016 224.234 312.016C224.234 312.016 243.05 248.611 263.096 231.042C272.313 222.964 283.462 226.675 287.873 233.832C301.819 256.461 305.721 305.919 305.721 305.919Z" fill="#17282F"/>
<path d="M269.644 243.677C270.811 263.04 267.861 294.765 262.976 300.368C258.649 305.328 231.574 314.287 221.297 316.373C216.549 317.336 203.013 294.594 207.753 292.763C213.692 290.469 240.572 280.672 241.446 279.506C242.406 278.226 247.923 256.023 255.287 241.914C261.963 229.125 269.202 236.354 269.644 243.677Z" fill="#E84E4B"/>
<path d="M217.86 290.352C217.86 290.352 205.095 291.187 198.552 293.353C189.79 296.253 183.661 301.758 181.26 304.194C176.248 309.279 168.354 324.458 173.21 327.112C177.608 329.515 184.735 313.661 184.735 313.661C184.735 313.661 174.263 328.827 180.197 330.911C186.129 332.995 193.145 314.199 193.145 314.199C193.145 314.199 182.804 329.983 189.332 331.326C194.265 332.341 201.771 315.615 201.771 315.615C201.771 315.615 192.996 329.233 198.015 330.459C203.561 331.813 211.654 316.735 211.654 316.735C225.042 318.064 232.089 313.9 236.688 310.613C237.802 309.817 217.86 290.352 217.86 290.352Z" fill="#E84E4B"/>
<path d="M187.953 308.222C186.646 309.966 185.307 311.725 184.191 313.56C183.074 315.396 182.034 317.265 181.127 319.178C178.904 323.872 178.394 327.1 178.451 326.903C179.813 322.255 183.689 315.634 184.807 313.798C185.921 311.966 186.926 310.088 188.039 308.254L187.953 308.222Z" fill="#17282F"/>
<path d="M195.991 311.457C194.438 313.745 192.793 315.968 191.361 318.314C189.935 320.648 188.828 322.967 187.599 325.376C187.504 325.562 187.655 325.543 187.759 325.359C189.103 322.993 190.564 320.891 191.941 318.537C193.313 316.192 194.586 313.784 196.06 311.483L195.991 311.457Z" fill="#17282F"/>
<path d="M203.489 313.201C200.9 316.596 199.065 320.385 197.373 324.137C197.29 324.324 197.481 324.282 197.581 324.095C199.532 320.428 201.03 317.539 203.632 313.276L203.489 313.201Z" fill="#17282F"/>
<path d="M222.229 319.228L211.614 287.919L237.012 279.308C241.891 268.287 251.655 246.255 256.406 239.057C261.978 230.612 269.388 233.28 270.407 243.058C272.738 265.423 269.303 296.212 265.543 300.871C259.783 308.01 222.229 319.228 222.229 319.228Z" fill="#4E0076"/>
<path d="M228.882 313.97C228.666 311.862 226.046 303.415 225.367 301.316C224.701 299.261 221.612 290.883 220.905 288.729C220.866 288.612 220.653 288.625 220.689 288.744C221.345 290.886 227.681 312.048 228.748 313.995L228.882 313.97Z" fill="#17282F"/>
<path d="M270.895 253.913C271.143 261.265 271.128 268.627 270.754 275.982C270.29 283.339 269.87 290.757 267.495 297.907C266.462 301.728 262.48 304.118 258.695 306.03C247.259 311.677 234.742 315.603 222.247 319.271L222.191 319.287L222.176 319.24L221.141 316.019L222.282 319.215L222.211 319.185C230.473 316.578 238.668 313.813 246.648 310.674C250.632 309.101 254.583 307.454 258.317 305.523C261.988 303.635 265.744 301.403 266.765 297.718C269.17 290.685 269.575 283.238 270.176 275.958C270.652 268.619 270.879 261.264 270.895 253.913Z" fill="#17282F"/>
<path d="M270.937 259.427C271.027 258.242 271.363 257.044 271.62 255.882C271.704 257.088 271.373 258.283 270.937 259.427Z" fill="#17282F"/>
<path d="M194.479 43.2546L151.883 43.2555H137.552V37.3634H130.016L137.552 31.0923V15.5994H194.479V19.437V43.2546Z" fill="white"/>
<path d="M194.479 43.2546C194.317 36.3606 194.147 22.4892 194.072 15.5994L194.479 15.938C180.283 15.987 151.743 16.0128 137.552 16.011L138.048 15.5994L137.993 31.0923V31.2453L137.864 31.3518L130.287 37.5894L130.016 37.0446L137.552 37.0832L137.892 37.085L137.889 37.3634L137.82 43.2546C136.218 42.6574 194.794 43.4385 194.479 43.2546ZM194.479 43.2546C194.125 43.2237 137.591 43.5004 137.289 43.478L137.286 43.2546L137.217 37.3634L137.552 37.6426L130.016 37.683L129.09 37.6873L129.745 37.1374L137.242 30.8328L137.112 31.0923L137.058 15.5994L137.057 15.187H137.552C151.95 15.1878 180.494 15.2128 194.89 15.2609C194.812 22.3302 194.636 36.1913 194.479 43.2546Z" fill="#17282F"/>
<path d="M175.575 29.427C175.575 28.267 176.705 27.3278 178.098 27.3278C179.492 27.3278 180.622 28.267 180.622 29.427C180.622 30.5862 179.492 31.5262 178.098 31.5262C176.705 31.5262 175.575 30.5862 175.575 29.427Z" fill="#17282F"/>
<path d="M162.983 29.427C162.983 28.267 164.112 27.3278 165.505 27.3278C166.9 27.3278 168.029 28.267 168.029 29.427C168.029 30.5862 166.9 31.5262 165.505 31.5262C164.112 31.5262 162.983 30.5862 162.983 29.427Z" fill="#17282F"/>
<path d="M150.39 29.427C150.39 28.267 151.52 27.3278 152.913 27.3278C154.307 27.3278 155.437 28.267 155.437 29.427C155.437 30.5862 154.307 31.5262 152.913 31.5262C151.52 31.5262 150.39 30.5862 150.39 29.427Z" fill="#17282F"/>
</svg>
